<!DOCTYPE svg PUBLIC "-//W3C//DTD SVG 1.1//EN" "http://www.w3.org/Graphics/SVG/1.1/DTD/svg11.dtd">

<!-- Uploaded to: SVG Repo, www.svgrepo.com, Transformed by: SVG Repo Mixer Tools -->
<svg fill="#3caaa2" width="64px" height="64px" viewBox="0 0 24 24"
  xmlns="http://www.w3.org/2000/svg" stroke="#3caaa2" stroke-width="0.00024000000000000003">

  <g id="SVGRepo_bgCarrier" stroke-width="0"/>

  <g id="SVGRepo_tracerCarrier" stroke-linecap="round" stroke-linejoin="round" stroke="#CCCCCC" stroke-width="0.096"/>

  <g id="SVGRepo_iconCarrier">

    <path d="M3.515,22.875a1,1,0,0,0,1.015-.027L12,18.179l7.47,4.669A1,1,0,0,0,21,22V4a3,3,0,0,0-3-3H6A3,3,0,0,0,3,4V22A1,1,0,0,0,3.515,22.875ZM5,4A1,1,0,0,1,6,3H18a1,1,0,0,1,1,1V20.2l-6.47-4.044a1,1,0,0,0-1.06,0L5,20.2Z"/>

  </g>

</svg>